<svg xmlns="http://www.w3.org/2000/svg" xmlns:xlink="http://www.w3.org/1999/xlink" viewBox="0 0 1133.4 308.27"><defs><style>.cls-1{fill:#fff;}.cls-2{fill:#58595b;}.cls-3{fill:orange;}.cls-4{clip-path:url(#clip-path);}.cls-5{fill:url(#linear-gradient);}.cls-6{fill:url(#linear-gradient-2);}.cls-7{fill:url(#linear-gradient-3);}.cls-8{fill:url(#linear-gradient-4);}.cls-9{fill:url(#linear-gradient-5);}.cls-10{fill:url(#linear-gradient-6);}.cls-11{fill:url(#linear-gradient-7);}.cls-12{fill:url(#linear-gradient-8);}.cls-13{fill:url(#linear-gradient-9);}.cls-14{fill:url(#linear-gradient-10);}.cls-15{fill:url(#linear-gradient-11);}.cls-16{fill:url(#linear-gradient-12);}.cls-17{fill:url(#linear-gradient-13);}.cls-18{fill:url(#linear-gradient-14);}.cls-19{fill:url(#linear-gradient-15);}.cls-20{fill:url(#linear-gradient-16);}.cls-21{fill:url(#linear-gradient-17);}.cls-22{fill:url(#linear-gradient-18);}.cls-23{fill:url(#linear-gradient-19);}.cls-24{fill:url(#linear-gradient-20);}.cls-25{fill:url(#linear-gradient-21);}</style><clipPath id="clip-path"><path class="cls-1" d="M1015.59,175a85,85,0,0,1-23.85,6,86.41,86.41,0,0,1-56.6-14.25,85,85,0,0,1-30.65-37.14,83,83,0,0,1,8-79.43,84.85,84.85,0,0,1,61.29-36,86.41,86.41,0,0,1,56.6,14.25A85,85,0,0,1,1061,65.44a83,83,0,0,1-8,79.43A84.41,84.41,0,0,1,1015.59,175Z"/></clipPath><linearGradient id="linear-gradient" x1="1025.73" y1="264.24" x2="1025.73" y2="-135.61" gradientTransform="matrix(0.65, 0.13, -0.13, 0.64, 322.45, -85.82)" gradientUnits="userSpaceOnUse"><stop offset="0" stop-color="#f15a29"/><stop offset="1" stop-color="#f7941e"/></linearGradient><linearGradient id="linear-gradient-2" x1="1063.28" y1="264.24" x2="1063.28" y2="-135.61" xlink:href="#linear-gradient"/><linearGradient id="linear-gradient-3" x1="1038.75" y1="264.24" x2="1038.75" y2="-135.61" xlink:href="#linear-gradient"/><linearGradient id="linear-gradient-4" x1="1039.37" y1="264.24" x2="1039.37" y2="-135.61" xlink:href="#linear-gradient"/><linearGradient id="linear-gradient-5" x1="1050.3" y1="264.24" x2="1050.3" y2="-135.61" xlink:href="#linear-gradient"/><linearGradient id="linear-gradient-6" x1="1063.67" y1="264.24" x2="1063.67" y2="-135.61" xlink:href="#linear-gradient"/><linearGradient id="linear-gradient-7" x1="1037.18" y1="264.24" x2="1037.18" y2="-135.61" xlink:href="#linear-gradient"/><linearGradient id="linear-gradient-8" x1="1049.54" y1="264.24" x2="1049.54" y2="-135.61" xlink:href="#linear-gradient"/><linearGradient id="linear-gradient-9" x1="913.52" y1="619.8" x2="913.52" y2="-132.1" gradientTransform="matrix(0.65, 0.13, -0.13, 0.64, 322.45, -85.82)" gradientUnits="userSpaceOnUse"><stop offset="0" stop-color="#2b3990"/><stop offset="1" stop-color="#00aeef"/></linearGradient><linearGradient id="linear-gradient-10" x1="1153.17" y1="289.18" x2="1153.17" y2="125.81" xlink:href="#linear-gradient-9"/><linearGradient id="linear-gradient-11" x1="834.05" y1="555.03" x2="834.05" y2="-190.09" xlink:href="#linear-gradient-9"/><linearGradient id="linear-gradient-12" x1="169.75" y1="102.67" x2="169.75" y2="419.79" gradientTransform="matrix(1, 0, 0, 1, 0, 0)" xlink:href="#linear-gradient-9"/><linearGradient id="linear-gradient-13" x1="238.28" y1="102.67" x2="238.28" y2="419.79" gradientTransform="matrix(1, 0, 0, 1, 0, 0)" xlink:href="#linear-gradient-9"/><linearGradient id="linear-gradient-14" x1="324.37" y1="102.67" x2="324.37" y2="419.79" gradientTransform="matrix(1, 0, 0, 1, 0, 0)" xlink:href="#linear-gradient-9"/><linearGradient id="linear-gradient-15" x1="405.85" y1="102.67" x2="405.85" y2="149.54" gradientTransform="matrix(1, 0, 0, 1, 0, 0)" xlink:href="#linear-gradient-9"/><linearGradient id="linear-gradient-16" x1="401.57" y1="102.67" x2="401.57" y2="419.79" gradientTransform="matrix(1, 0, 0, 1, 0, 0)" xlink:href="#linear-gradient-9"/><linearGradient id="linear-gradient-17" x1="501.66" y1="102.67" x2="501.66" y2="419.79" gradientTransform="matrix(1, 0, 0, 1, 0, 0)" xlink:href="#linear-gradient-9"/><linearGradient id="linear-gradient-18" x1="584.57" y1="102.67" x2="584.57" y2="419.79" gradientTransform="matrix(1, 0, 0, 1, 0, 0)" xlink:href="#linear-gradient-9"/><linearGradient id="linear-gradient-19" x1="662.12" y1="102.67" x2="662.12" y2="419.79" gradientTransform="matrix(1, 0, 0, 1, 0, 0)" xlink:href="#linear-gradient-9"/><linearGradient id="linear-gradient-20" x1="735.84" y1="102.67" x2="735.84" y2="419.79" gradientTransform="matrix(1, 0, 0, 1, 0, 0)" xlink:href="#linear-gradient-9"/><linearGradient id="linear-gradient-21" x1="808.61" y1="102.67" x2="808.61" y2="419.79" gradientTransform="matrix(1, 0, 0, 1, 0, 0)" xlink:href="#linear-gradient-9"/></defs><title>Asset 15</title><g id="Layer_2" data-name="Layer 2"><g id="Layer_1-2" data-name="Layer 1"><path class="cls-2" d="M1130.83,285l-25.1,16.46a15.06,15.06,0,0,0,20.92,4.33A14.84,14.84,0,0,0,1130.83,285Z"/><path class="cls-3" d="M1051.49,167.74l.77-.72a96.44,96.44,0,0,0,27.13-88.79,98.59,98.59,0,0,0-49.53-66.17A100.33,100.33,0,0,0,962.76,1.91a98.75,98.75,0,0,0-49.52,26,96.44,96.44,0,0,0-27.13,88.79,98.59,98.59,0,0,0,49.53,66.17A100.33,100.33,0,0,0,1002.74,193a99,99,0,0,0,24.12-8.16l78.73,116.67,25.1-16.46Zm-35.9,7.22a85,85,0,0,1-23.85,6,86.41,86.41,0,0,1-56.6-14.25,85,85,0,0,1-30.65-37.14,83,83,0,0,1,8-79.43,84.85,84.85,0,0,1,61.29-36,86.41,86.41,0,0,1,56.6,14.25A85,85,0,0,1,1061,65.44a83,83,0,0,1-8,79.43A84.41,84.41,0,0,1,1015.59,175Z"/><path class="cls-1" d="M1015.59,175a85,85,0,0,1-23.85,6,86.41,86.41,0,0,1-56.6-14.25,85,85,0,0,1-30.65-37.14,83,83,0,0,1,8-79.43,84.85,84.85,0,0,1,61.29-36,86.41,86.41,0,0,1,56.6,14.25A85,85,0,0,1,1061,65.44a83,83,0,0,1-8,79.43A84.41,84.41,0,0,1,1015.59,175Z"/><g class="cls-4"><path class="cls-5" d="M975.23,112.09a31,31,0,0,1,1.24-6.35l2.06.79-1-2.45s.28-.54.69-1.3c-1.32-2.52-2.75-5.77-2.75-5.77a17.51,17.51,0,0,1,6.06-.76c1.57-1.57,9.33-10,8.62-22.16l.19-.28c-.91.56-1.87,1.21-2.85,2l-.72.55-.37.28-.36.31c-.48.42-1,.83-1.47,1.27l-1.47,1.42c-.26.24-.49.5-.74.76l-.74.79a55.56,55.56,0,0,0-5.71,7.43l-.69,1-.65,1.1c-.43.74-.88,1.47-1.31,2.23L972,95.29c-.2.39-.42.78-.61,1.19l-.57,1.23-1.15,2.48-1.05,2.57c-.74,1.7-1.33,3.5-2,5.28l-.24.67c-.08.22-.16.45-.23.68l-.43,1.37-.85,2.75c-.07.23-.14.46-.21.69l-.19.7-.37,1.4-.75,2.8,0,.08A20.52,20.52,0,0,1,975.23,112.09Z"/><path class="cls-6" d="M997.42,101.67l-2.86-.23,1.46,2.14.32-.13c1.67,2.07,3.79,8.08,3.79,8.08l-1.06,1.35,1.63-.33a10.79,10.79,0,0,1,.44,5.2,10.48,10.48,0,0,1,3.46-2.58l.41.64c.34-4,.79-10.68.15-12l3.19-.51-4.17-1.64-1.33-4.25,2.43-2.21-3.87-.52s-1.53-2.35-3.48-5.66l-1.11.12,1.86,1.23S998.59,98.5,997.42,101.67Z"/><path class="cls-7" d="M990.6,74l-.48,0s.25.17.66.5Z"/><path class="cls-8" d="M928.27,153.44c.92,0,1.84.09,2.77.11l2.8.09,2.84.08q3.82.1,7.75.17l.29-1.47c.08-.42.17-.83.27-1.25l.29-1.27,1.18-5.24.15-.67.17-.67.35-1.36.71-2.75.72-2.79.82-2.81.83-2.84c.14-.48.28-1,.42-1.43l.47-1.43,1-2.87.48-1.44c.08-.24.16-.48.24-.72l.27-.71,1.07-2.86.53-1.43c.18-.48.35-1,.55-1.42l1.18-2.83.59-1.41.29-.7.32-.69,1.29-2.76.64-1.37c.1-.23.22-.45.34-.68l.35-.67c.94-1.79,1.81-3.57,2.83-5.27l1.47-2.54,1.57-2.45.77-1.2c.26-.4.55-.78.82-1.16l1.62-2.28c.56-.74,1.14-1.45,1.69-2.16l.83-1.05.88-1a59.08,59.08,0,0,1,7-7l.88-.72c.29-.24.57-.48.87-.69l1.73-1.27c.58-.39,1.16-.76,1.71-1.12l.41-.27.42-.24.82-.47c.9-.51,1.77-1,2.61-1.35-15.23-.61-25.62,9.26-25.62,9.26l-3.15-2,1.08,2c-1.11,1.21-7.5,3.93-7.5,3.93l-2.93-1.41.83,2.52c-2.76,1-14.85,1.36-14.85,1.36,1.25-17.47,18.47-24.92,18.47-24.92l2.92,2.2-.08-3.44c4-1.19,14-.72,14-.72l1.38,2.31.44-2.53a15.69,15.69,0,0,1,3.15.46,38,38,0,0,0-11.61-3l-.71-3.6-.7,2.11c-1.66,0-8.05-2.75-8.05-2.75l-1-3.07L954,54.08c-2.67-1.29-11.19-9.81-11.19-9.81,13.79-10.94,31.12-3.55,31.12-3.55l.37,3.61,2.49-2.39c3.6,2.07,10.12,9.62,10.12,9.62l-.77,2.57,2.17-1.4A17,17,0,0,1,991.93,60a16.13,16.13,0,0,1,3.54-5.68l2.07,1.52-.62-2.59s6.86-7.07,10.53-8.89l2.34,2.51.56-3.54s17.54-6.24,30.6,5.45c0,0-8.89,7.9-11.6,9l-1.16-2.36-1.12,3s-6.48,2.34-8.12,2.22l-.58-2.13-.89,3.52a37.9,37.9,0,0,0-12.94,2.78h.14l.33,2.09,1.16-1.88s8.25-.2,11.51.85l-.1,2.83L1020,67s14.1,6.45,14.94,20.86c0,0-9.95-.48-12.21-1.39l.71-2.06L1021,85.47s-5.23-2.36-6.13-3.38l.91-1.59-2.61,1.56a31.8,31.8,0,0,0-10.36-6.24,31.4,31.4,0,0,1,10.7,7.68L1012.28,85l2.23-.71s13.9,15.88-.06,28.48l.49,1.25,1.17-2s12,.32,17,10.31c0,0-7.19,2.66-9.07,2.7l-.14-1.68-1.37,1.52s-4.43-.1-5.39-.55l.15-1.4-1.36,1.9a24.46,24.46,0,0,0-8.41-1.33l.09,0-.29,1.32,1.14-.85s5,1.78,6.69,3.16l-.73,1.66,1.87-.49s6.92,7.1,4,15.89c0,0-5.84-2.58-7-3.65l.91-1.06-1.72.1a22.52,22.52,0,0,1-2.87-3.43l.92-.74-1.93.33a20.15,20.15,0,0,0-4.73-6.11,19.89,19.89,0,0,1,4.59,7.05l-1.11.61,1.5.09s5.73,15.89-11.55,18.12l.24,0c2.09.16,4.18.29,6.27.5l3.12.28,3.12.32c8.29.85,16.48,2.1,24.37,3.7,1.58.32,3.15.67,4.71,1a79.44,79.44,0,0,0,26.35-44.86c8.76-43.57-19.93-86.09-64.09-95s-87,19.25-95.8,62.82a80,80,0,0,0,18.7,68.87l1.18.06C926.44,153.38,927.36,153.4,928.27,153.44Z"/><path class="cls-9" d="M998.72,146.89l2,.43-2.11-1.94.21-2.84,2-.76-2.19-1.2s-.36-1.76-.75-4.18l-.69-.18.82,1.16s-2,4.84-3.44,6.46l-1.66-.79.43,1.87s-7.43,6.51-16.21,3.24c0,0,2.82-5.65,3.94-6.73l1,.95,0-1.7a22.36,22.36,0,0,1,3.57-2.68l.71.94L986.1,137s7.9-3,10.63-11.33l.18-.12c-.68.13-1.4.29-2.17.51l-.56.16-.29.09-.29.1-1.18.42-1.22.51c-.21.08-.41.18-.62.28l-.63.3a36.15,36.15,0,0,0-5.17,3.11l-.66.46-.65.5c-.43.34-.87.67-1.31,1l-1.29,1.11c-.22.19-.44.37-.65.57l-.63.6-1.28,1.21-1.24,1.29c-.84.85-1.62,1.78-2.43,2.7l-.3.34-.3.35-.58.72-1.16,1.44-.29.36-.28.37-.55.75-1.11,1.5c-.19.25-.36.51-.54.76l-.53.77-1,1.54-.26.38-.25.39L967,151l-1,1.56-.49.77-.46.79-.07.11c6.62.13,13.34.31,20.1.61,3.33.15,6.68.33,10,.55C995.88,153.88,998.8,148.08,998.72,146.89Z"/><path class="cls-10" d="M997,125.79l-.3-.09s.11.16.28.45C997,126,997,125.91,997,125.79Z"/><path class="cls-11" d="M962.53,146.58l.31-.37.33-.37,1.32-1.46.66-.73c.22-.24.44-.49.67-.72l1.37-1.41.69-.7.34-.35.36-.34,1.42-1.35.71-.67.36-.33.37-.32c1-.85,1.93-1.71,2.94-2.49l1.48-1.18,1.52-1.1.75-.54c.25-.18.51-.34.76-.51l1.51-1c.51-.31,1-.6,1.52-.9l.75-.44.76-.4a38.47,38.47,0,0,1,5.86-2.54l.7-.23c.23-.07.46-.15.69-.21l1.34-.36,1.29-.27.31-.06.31,0,.6-.09c.66-.1,1.29-.16,1.88-.2a24.63,24.63,0,0,0-17.54-.39l-1.42-1.89.19,1.41c-1,.46-5.42.62-5.42.62l-1.42-1.52-.1,1.69c-1.44,0-6-1.51-8.12-2.24l-.48,2.12-.16.7c0,.24-.09.47-.14.71l-.27,1.42-.53,2.82-.26,1.4c-.08.47-.14.94-.22,1.41L960.1,136l-.42,2.75-.32,2.73-.32,2.68-.16,1.32-.08.66-.06.66-.43,5,1.12-1.43.59-.75.62-.74,1.25-1.49Z"/><path class="cls-12" d="M989.26,116l.86-1.41a10,10,0,0,1,1.78,1,26.16,26.16,0,0,0-3.39-2.8q-.56.42-1.15.83c1,.39,1.63.68,1.63.68Z"/><path class="cls-13" d="M691,10.77l1.82,2.35c.14.2.32.38.49.59l.56.63c.39.44.8.93,1.27,1.44,1,1,2.08,2.14,3.45,3.27.34.29.67.6,1,.89l1.14.87,1.18.92,1.29.88c.44.3.88.61,1.35.91l1.45.87.74.45.37.23c.13.07,170.8,121.2,170.93,121.27l1.6.84a76.23,76.23,0,0,0,15.39,5.74c.72.21,1.47.38,2.22.56s1.5.37,2.27.54c1.55.31,3.11.68,4.73.94,3.21.6,6.57,1.09,10,1.53s7,.79,10.72,1.07,7.43.55,11.28.73,7.75.36,11.72.5l12.06.38,6.13.18,3.08.09,3.09.11q6.19.22,12.43.47c4.15.19,8.32.43,12.46.68,2.08.14,4.15.26,6.21.45l3.09.25,3.08.28c2.05.18,4.1.41,6.13.62l3,.37c1,.12,2,.24,3,.39l3,.41c1,.14,2,.3,3,.45,2,.28,3.94.65,5.89,1a190.8,190.8,0,0,1,22.2,5.32c.87.25,1.73.55,2.58.83l2.54.84,2.48.9c.82.3,1.63.58,2.42.91l2.36,1,1.16.47,1.14.51c1.51.68,3,1.3,4.42,2l2.11,1c.7.34,1.37.73,2,1.08l2,1.07c.65.36,1.27.75,1.89,1.12l1.84,1.1c.6.37,1.17.76,1.75,1.13l1.69,1.11.41.27.4.29.79.57,1.54,1.11.75.54.71.56,2.7,2.16,2.39,2.1c.38.34.76.65,1.1,1l1,1,1.85,1.81c.56.59,1.07,1.16,1.55,1.68l1.32,1.44c.4.45.73.88,1,1.25l1.88,2.31-2.28-1.92c-.37-.31-.77-.67-1.24-1l-1.53-1.2-1.77-1.38-2.07-1.49-1.12-.8c-.38-.27-.8-.53-1.21-.81L1094,193l-2.88-1.73-.75-.45-.78-.43-1.61-.88a119.34,119.34,0,0,0-15.13-6.83c-2.84-1.07-5.85-2.07-9-3l-.59-.18-.6-.16-1.2-.34-2.42-.68-2.48-.62c-.83-.21-1.67-.43-2.52-.61-1.7-.37-3.42-.79-5.18-1.14l-2.65-.54-2.69-.49-1.36-.25-1.37-.22-2.76-.46c-.92-.15-1.86-.28-2.79-.42s-1.87-.29-2.82-.4c-1.9-.24-3.8-.49-5.74-.71-1-.11-1.93-.23-2.9-.33l-2.93-.3q-5.89-.57-11.93-1c-8-.57-16.26-1-24.5-1.36q-6.18-.3-12.37-.55L969,168.8l-3.08-.15-6.14-.3c-2-.11-4.08-.2-6.1-.33l-6-.4c-2-.13-4-.29-6-.44s-4-.34-5.9-.54c-7.81-.74-15.38-1.78-22.51-3.15-.89-.17-1.77-.37-2.65-.55s-1.75-.36-2.61-.57l-2.56-.6c-.85-.2-1.68-.44-2.51-.66-1.66-.43-3.28-.95-4.86-1.42-.79-.25-1.57-.52-2.34-.78s-1.54-.52-2.28-.81l-2.22-.85c-.73-.28-1.44-.61-2.14-.9-1.42-.58-173.3-122.31-174.61-123l-.49-.24-.48-.26-.95-.51c-.62-.35-1.25-.66-1.84-1l-1.75-1.07-.85-.52-.81-.56a49.86,49.86,0,0,1-10-8.85l-.87-1c-.14-.17-.28-.32-.41-.5l-.37-.5-1.34-1.86c-.39-.6-.73-1.16-1-1.67l-.45-.73c-.14-.23-.28-.45-.39-.67Z"/><path class="cls-14" d="M983.31,174.6l.37,0,1.08.12,1.74.22c.34.05.71.08,1.1.12l1.23.12,1.36.14c.48,0,1,.07,1.51.12l1.63.13c.56.06,1.15.06,1.75.1l1.86.1,2,.06c1.34.05,2.76.06,4.23.07,2.95,0,6.13,0,9.53-.14s7-.2,10.77-.25,7.71,0,11.75.21a120.35,120.35,0,0,1,12.26,1.26,110,110,0,0,1,12.11,2.66c1,.28,2,.6,2.92.89l1.44.46,1.42.5,2.8,1c.92.35,1.82.74,2.72,1.11a107.08,107.08,0,0,1,10,4.81c.78.4,1.53.85,2.27,1.28s1.47.85,2.17,1.28c.35.21.71.42,1.05.64l1,.65c.67.43,1.33.85,2,1.28s1.27.83,1.86,1.25,1.18.83,1.74,1.25l1.64,1.2c.53.39,1.05.76,1.53,1.15,1,.78,1.87,1.49,2.7,2.17s1.59,1.29,2.24,1.89,1.25,1.12,1.76,1.59.93.87,1.28,1.19l.78.75.27.26-.35-.14-1-.41-1.61-.69-2.15-1c-.8-.37-1.7-.74-2.67-1.16s-2-.88-3.13-1.37-2.31-1-3.56-1.51c-.63-.26-1.26-.54-1.91-.83s-1.33-.54-2-.82-1.38-.57-2.1-.86l-1.07-.44c-.36-.15-.73-.28-1.11-.42-.75-.28-1.5-.57-2.26-.87s-1.53-.61-2.33-.88c-3.16-1.15-6.48-2.33-9.95-3.39l-2.62-.81-2.67-.74-1.34-.38-1.36-.34c-.91-.23-1.82-.48-2.74-.69-3.68-.86-7.45-1.6-11.24-2.22s-7.63-1.06-11.45-1.45-7.61-.69-11.33-1-7.36-.63-10.82-1-6.76-.94-9.78-1.54c-1.51-.34-3-.62-4.31-1l-2-.53-1.86-.57c-1.2-.36-2.3-.75-3.31-1.13-.51-.19-1-.36-1.45-.54l-1.31-.56c-.82-.36-1.57-.66-2.18-1l-1.56-.79-1-.51Z"/><path class="cls-15" d="M1008.24,190.83l-1.8-.54c-1.17-.37-2.88-.88-5-1.51s-4.81-1.36-7.83-2.14-6.44-1.56-10.18-2.31-7.8-1.47-12.11-2.09c-2.15-.32-4.38-.6-6.65-.89s-4.6-.54-7-.78c-4.74-.49-9.67-.91-14.71-1.35s-10.19-.89-15.38-1.48-10.4-1.33-15.54-2.35S731.34,52,726.57,50.4c-1.19-.42-2.37-.83-3.52-1.29s-2.29-.92-3.41-1.39-2.21-1-3.27-1.51-2.11-1.05-3.13-1.6c-2-1.12-4-2.23-5.78-3.43-.45-.3-.91-.58-1.34-.89l-1.29-.9-.64-.45-.62-.46-1.21-.91c-.79-.61-1.54-1.23-2.29-1.83s-1.44-1.22-2.12-1.81L696,32.15c-.62-.59-1.21-1.17-1.77-1.74s-1.09-1.14-1.61-1.68l-.75-.8-.7-.79c-.45-.52-.9-1-1.3-1.49s-.78-1-1.14-1.4c-.73-.87-1.33-1.7-1.87-2.4-.26-.35-.52-.67-.73-1l-.58-.84c-.35-.5-.61-.89-.79-1.14l-.27-.39L686,19.67c.47.38,1.05.85,1.75,1.39l1.11.87c.39.32.82.64,1.27,1L691.5,24c.5.37,1,.75,1.57,1.14s1.11.81,1.71,1.22,1.2.86,1.85,1.28l2,1.32,2.13,1.35c.75.44,1.5.9,2.27,1.36s1.58.91,2.41,1.36c1.66.89,3.37,1.81,5.2,2.66s3.72,1.71,5.69,2.5S890.9,160.76,893,161.47c1.07.33,2.14.69,3.23,1s2.21.62,3.32.93q3.38.87,6.91,1.6l1.77.36,1.79.33c.6.12,1.2.21,1.81.32l1.82.3c4.87.8,9.89,1.41,15,2s10.19,1.13,15.26,1.75,10.08,1.33,14.92,2.18c2.42.42,4.8.9,7.12,1.39,1.16.26,2.31.5,3.44.79l1.68.41,1.65.43c2.19.58,4.31,1.18,6.34,1.82s4,1.29,5.84,2c3.71,1.36,7,2.78,9.93,4.14,1.44.71,2.79,1.34,4,2,.61.33,1.2.63,1.75.93l1.57.89c1,.55,1.87,1.1,2.63,1.56s1.39.87,1.9,1.2Z"/></g><path class="cls-16" d="M250.91,59q25.62,0,42.63,4.79t27.28,11.54Q331.09,82,335.3,89.37T339.5,102a13.72,13.72,0,0,1-3.23,9,10.48,10.48,0,0,1-8.51,3.91q-3.91,0-5.67-1.08a4.77,4.77,0,0,1-2.25-2.84,7.53,7.53,0,0,1,0-3.81q.49-2.05,1.08-4.2a11.81,11.81,0,0,0,.39-2,9,9,0,0,0-2.74-6,24.11,24.11,0,0,0-7.73-5.38,54.54,54.54,0,0,0-12-3.81A78,78,0,0,0,283,84.38a433,433,0,0,0-67.67,5,521.81,521.81,0,0,0-58.18,12.42q-26.69,7.44-48.5,15.84T70.21,133.08q-15.25,6.65-26.89,11t-19.07,4.4a20.23,20.23,0,0,1-8.8-2.05,35,35,0,0,1-7.73-5A27.28,27.28,0,0,1,2.15,135,12.62,12.62,0,0,1,0,128.58a8.65,8.65,0,0,1,3.13-6.94Q6.26,119,13.1,119q2.74,0,12.12-3.23t22.88-8.12q12.32-4.5,27.48-9.78t32.17-10.76q17-5.47,35.3-10.56t36.67-9q18.38-3.91,36.47-6.26A269.86,269.86,0,0,1,250.91,59Zm-75.1,89.57a12.07,12.07,0,0,1,6,1.37,13.43,13.43,0,0,1,4.11,3.52,14.43,14.43,0,0,1,2.45,4.89,20,20,0,0,1,.78,5.48,15.79,15.79,0,0,1-2.25,8.51,7.25,7.25,0,0,1-6.55,3.62,222,222,0,0,0-26.5,1.56q-13,1.57-24.74,3.91-6.06,11-13.1,24.25t-13.1,25.62q-6.06,12.32-10.07,22.2t-4,14.18a51.73,51.73,0,0,0,1.56,13.79,58.77,58.77,0,0,0,3.13,8.9q2.54,6.26,2.15,8.8t-7.43,2.54q-3.52,0-8.41-2.93a37.1,37.1,0,0,1-9.29-8.21A50.47,50.47,0,0,1,63,277.9a40.68,40.68,0,0,1-3.13-16.13q0-3.52,2.54-11.15t6.45-17.21q3.91-9.58,8.8-19.95T87,193.9q-2.93,1-5.87,2.15t-5.08,2q-3.72,1.57-5.87,2.25a12.51,12.51,0,0,1-3.72.68q-4.5,0-6-2.15a8.8,8.8,0,0,1-1.47-5.08q0-2.93,3.23-6.36a47.09,47.09,0,0,1,8.9-7,118.59,118.59,0,0,1,13.4-7.24q7.72-3.62,16.53-6.94,2.93-5.67,5.67-10.85t4.89-9.09v.2q5.67-10.56,8.51-16.13t2.84-7.73q0-3.71,4.3-3.52a24.43,24.43,0,0,1,9.49,2.74,40.77,40.77,0,0,1,9.48,6.45q4.3,3.91,4.3,7.63v1q0,1.76-.1,2.93a15.56,15.56,0,0,1-.49,2.64,21.6,21.6,0,0,1-1.56,3.81l-3.13,6.26Q162.71,148.53,175.81,148.53Z"/><path class="cls-17" d="M289.24,182.36a3.06,3.06,0,0,1,3-1.56,11.54,11.54,0,0,1,4.4.88,10.14,10.14,0,0,1,3.62,2.44,2.9,2.9,0,0,1,.88,3.13q-2,3.92-6,11.64t-10,17q-6,9.29-13.59,19.07a127.91,127.91,0,0,1-16.82,17.8,88.07,88.07,0,0,1-19.75,13.1A50.32,50.32,0,0,1,213,271a32.81,32.81,0,0,1-16.82-4.11,39.08,39.08,0,0,1-11.73-10.36,43.78,43.78,0,0,1-6.94-13.69,49.3,49.3,0,0,1-2.25-14.28,60.4,60.4,0,0,1,6.65-27.09,87.46,87.46,0,0,1,17.5-24,92.36,92.36,0,0,1,24.45-17.11,63.13,63.13,0,0,1,27.67-6.55q9.19,0,13.2,4.11t4,11a31.68,31.68,0,0,1-2.64,11.64,83.17,83.17,0,0,1-7.14,13.59A124,124,0,0,1,248.56,208a118.37,118.37,0,0,1-12.42,12.52,89.94,89.94,0,0,1-13.4,9.68,45.29,45.29,0,0,1-13.1,5.38,35.94,35.94,0,0,0-.78,7.43,15.07,15.07,0,0,0,1.56,7.33,5.54,5.54,0,0,0,5.28,2.84,36.36,36.36,0,0,0,17-4.4,78.51,78.51,0,0,0,16-11.25,132.32,132.32,0,0,0,14.37-15.16q6.75-8.31,12-16.23t8.9-14.28Q287.68,185.5,289.24,182.36ZM254,167.7q-4.69,0-10.27,4.6a65.74,65.74,0,0,0-11,11.93,127.48,127.48,0,0,0-10.17,16.53,157.25,157.25,0,0,0-8.12,18.19,63.19,63.19,0,0,0,14.28-10.17,120.49,120.49,0,0,0,13.1-14.08,89.92,89.92,0,0,0,9.49-14.47q3.62-7,3.62-11.34C255,168.09,254.69,167.7,254,167.7Z"/><path class="cls-18" d="M362.57,182.56a3,3,0,0,1,2.93-1.56,12,12,0,0,1,4.4.88,10.69,10.69,0,0,1,3.72,2.35,2.45,2.45,0,0,1,.68,3q-1.76,3.92-5.57,11.64t-9,17q-5.18,9.29-11.25,19.07a188.8,188.8,0,0,1-12.42,17.8,79.09,79.09,0,0,1-12.81,13.1Q316.81,271,311.14,271A23.25,23.25,0,0,1,301,268.8a26.62,26.62,0,0,1-7.73-5.48,23.75,23.75,0,0,1-5-7.63,23,23,0,0,1-1.76-8.8,49.11,49.11,0,0,1,2.35-13.59q2.35-7.92,5.08-15.16,3.32-8.41,7.63-17.41-1.57-1-3.23-2.15a38.65,38.65,0,0,1-3.42-2.74q-1.57,3.13-3.42,6.75t-5.77,10.27a2.76,2.76,0,0,1-2.93,1.17,11,11,0,0,1-4.3-1.37,12.71,12.71,0,0,1-3.52-2.74q-1.37-1.56-.39-2.93v.2q2.93-5.08,4.79-8.61t3.13-6.16q1.27-2.64,2.25-4.6t2-4.11a23.91,23.91,0,0,1-1.47-5.38,40.11,40.11,0,0,1-.49-6.36,52.28,52.28,0,0,1,1.56-12.71A53.26,53.26,0,0,1,290.41,148a30.09,30.09,0,0,1,5.67-8,9.29,9.29,0,0,1,6.45-3,44,44,0,0,1,7,.68,36.62,36.62,0,0,1,7.73,2.15,19.22,19.22,0,0,1,6.16,3.91,8,8,0,0,1,2.54,6,14.33,14.33,0,0,1-1.76,6.55q-1.76,3.42-3.91,7.53a86.47,86.47,0,0,0-5,9.48,23.08,23.08,0,0,0-2.25,9.49,17,17,0,0,0,.88,5.77,12.53,12.53,0,0,0,2.35,4.11,16.51,16.51,0,0,0,3.23,2.83q1.76,1.17,3.32,2.15a29.72,29.72,0,0,1,5.48,3.62,7,7,0,0,1,2.15,5.57q0,2.35-2,6.94T323.85,224q-1.76,3.91-3.72,8.31t-3.52,8.51q-1.57,4.11-2.64,7.82a23.22,23.22,0,0,0-1.08,6.26c0,1.44.32,2.15,1,2.15q2.93,0,7.24-4.5A96.46,96.46,0,0,0,330.31,241q4.89-7,9.88-15.65t9.49-16.82q4.5-8.22,7.92-15.16t5-10.66Z"/><polygon class="cls-19" points="405.84 100.77 405.85 100.77 405.85 100.77 405.84 100.77"/><path class="cls-20" d="M454,142.49a4,4,0,0,0-.45-1.12,3.34,3.34,0,0,0-1.45-1.31,4.67,4.67,0,0,0-2-.4,5.58,5.58,0,0,0-1.43.23c-.45.12-.9.27-1.33.42l-14.85,4.95a105.28,105.28,0,0,0-10.9-24.93c-4.8-8-10.31-14.83-15.77-19.55A13.74,13.74,0,0,0,402,98.32a10.55,10.55,0,0,0-4-.79,6.2,6.2,0,0,0-4.09,1.36,5,5,0,0,0-1.71,3.86,7.21,7.21,0,0,0,.84,3.18,13,13,0,0,0,2.44,3.3h0C404.68,119,411.12,134,414.58,151L403,154.61h0a16.49,16.49,0,0,0-7.64,5.59,17.51,17.51,0,0,0-2.27,3.7,9.16,9.16,0,0,0-.89,3.61,4.14,4.14,0,0,0,1,2.84,3.71,3.71,0,0,0,1.35.92,4.5,4.5,0,0,0,1.69.31,9.69,9.69,0,0,0,3.05-.65h0L417,165.22c.46,5.4.7,11,.7,16.33,0,19.29-3.63,39.85-10,55.44-3.19,7.79-7.07,14.34-11.43,18.86a25.32,25.32,0,0,1-6.86,5.2,16.53,16.53,0,0,1-7.43,1.8,9.06,9.06,0,0,1-4.38-1,9.78,9.78,0,0,1-4.29-5.26,27.34,27.34,0,0,1-1.57-10,54.47,54.47,0,0,1,11.81-33.8,42.34,42.34,0,0,1,11.73-10.27A25.91,25.91,0,0,1,408,198.8a4.74,4.74,0,0,0,2.26-.57,5.52,5.52,0,0,0,2.21-2.28,6.32,6.32,0,0,0,.75-2.95,6.92,6.92,0,0,0-.5-2.76,4.75,4.75,0,0,0-1.16-1.64,6,6,0,0,0-2.7-1.34,14.76,14.76,0,0,0-3.44-.34,44.47,44.47,0,0,0-20.16,5.32,71,71,0,0,0-25.48,23c-6.63,9.77-10.86,21.11-10.86,32.45a33.38,33.38,0,0,0,7.33,21.48,25.48,25.48,0,0,0,20,9.24c7,0,14.33-2.64,21.44-7.35,10.66-7.07,20.83-18.85,28.37-33.91a120.17,120.17,0,0,0,12.43-53.64,127.92,127.92,0,0,0-2.35-24.48l7.62-2.46h0a15.94,15.94,0,0,0,7.5-5.45,16.49,16.49,0,0,0,2.17-3.61,9.21,9.21,0,0,0,.83-3.55A6.47,6.47,0,0,0,454,142.49Z"/><path class="cls-21" d="M429.51,232.43a58.8,58.8,0,0,1,2.84-17.5A91.57,91.57,0,0,1,440.16,197,103.64,103.64,0,0,1,452,180.31a95.3,95.3,0,0,1,14.77-13.89,74.05,74.05,0,0,1,16.53-9.48,45.13,45.13,0,0,1,17.21-3.52,34.32,34.32,0,0,1,12.61,2.05,25.6,25.6,0,0,1,8.51,5.28,23.21,23.21,0,0,1,5.08,7.14,33.83,33.83,0,0,1,2.44,7.53,26.27,26.27,0,0,1,.49,6.55,11.9,11.9,0,0,1-.78,4.11h.2a2.21,2.21,0,0,1-2.44,1.47,12.52,12.52,0,0,1-3.72-.78,13.29,13.29,0,0,1-3.32-1.76c-1-.71-1.4-1.27-1.27-1.66a6,6,0,0,0,.1-2.15,8.19,8.19,0,0,0-1.17-3.62,9.69,9.69,0,0,0-3.52-3.32,13.58,13.58,0,0,0-6.94-1.47q-4.69,0-10.07,4.11A63.22,63.22,0,0,0,486,187.55a123.24,123.24,0,0,0-10.17,14.86,145.27,145.27,0,0,0-8.51,16.82,138.72,138.72,0,0,0-5.87,16.43,51,51,0,0,0-2.25,13.59q0,7,4.11,7,4.89,0,10-4.3a60.84,60.84,0,0,0,9.88-11,113.54,113.54,0,0,0,8.9-14.67q4.11-8,7.24-15.25t4.89-12.71q1.76-5.47,1.76-7.24a2.07,2.07,0,0,1,1.94-2.15,10.92,10.92,0,0,1,4.85.39,51.17,51.17,0,0,1,6.41,2.25,42.48,42.48,0,0,1,6.41,3.32,25.68,25.68,0,0,1,4.85,3.91q1.94,2.05,1.94,3.62,0,2.15-2.05,7t-4.78,11.15q-2,4.31-4,9t-3.71,9.19q-1.66,4.5-2.73,8.41a25.45,25.45,0,0,0-1.07,6.45c0,.65-.07,1-.2,1q2.73,0,6.93-4.6a107.41,107.41,0,0,0,9.08-11.73q4.88-7.14,9.87-15.74t9.39-16.72q4.4-8.11,7.73-14.67t4.89-9.68a3.06,3.06,0,0,1,3-1.56,11.56,11.56,0,0,1,4.4.88,10.16,10.16,0,0,1,3.62,2.45,2.9,2.9,0,0,1,.88,3.13q-1.76,3.91-5.77,11.73t-9.29,17.21q-5.28,9.39-11.44,19.26a194.67,194.67,0,0,1-12.51,17.89,95,95,0,0,1-12.4,13.2Q516.17,271,511.1,271a17.17,17.17,0,0,1-9.86-2.84,36.92,36.92,0,0,1-7.13-6.16,34.69,34.69,0,0,1-5.85-9.19q-2.34,2.74-5.45,5.87a64.74,64.74,0,0,1-6.72,5.87,41.25,41.25,0,0,1-7.6,4.6A18.55,18.55,0,0,1,460.6,271a25.74,25.74,0,0,1-13.4-3.42,31,31,0,0,1-9.68-9,42.93,42.93,0,0,1-6-12.42A47.42,47.42,0,0,1,429.51,232.43Z"/><path class="cls-22" d="M621.94,114.11a38.61,38.61,0,0,1-2.36,11.44q-2.36,7.14-6.2,16t-8.77,19.26q-4.92,10.37-10.24,20.92-5.28,11-10.46,21.61t-9.29,19.95q-4.11,9.29-6.55,16.62t-2.44,11.44c0,.91.06,1.37.2,1.37q3.52,0,8.51-4.3a87,87,0,0,0,10.46-11q5.47-6.75,11.15-14.86t10.56-15.84q4.89-7.72,8.51-14t5.18-9.39a3.14,3.14,0,0,1,2.93-1.66,10.69,10.69,0,0,1,4.4.78,10,10,0,0,1,3.72,2.44,2.9,2.9,0,0,1,.88,3.13q-2,3.92-6.26,11.64t-10.17,16.92q-5.87,9.2-13,18.87A175.08,175.08,0,0,1,588,253a97.25,97.25,0,0,1-15,12.91Q565.62,271,559,271A20.07,20.07,0,0,1,543,263.82q-6.16-7.14-6.16-19.26,0-4.3,2.74-12.71t7.24-19.17q4.5-10.75,10-23T568,165.35q5.28-11.15,10.17-21.9t8.8-19.85q3.91-9.09,6.26-15.94t2.35-10q0-3.13,4.14-2.54a25.84,25.84,0,0,1,9.06,3.42,40.94,40.94,0,0,1,9.06,7.14Q621.94,110,621.94,114.11Z"/><path class="cls-23" d="M713.07,182.36a3.06,3.06,0,0,1,3-1.56,11.54,11.54,0,0,1,4.4.88,10.14,10.14,0,0,1,3.62,2.44,2.9,2.9,0,0,1,.88,3.13q-2,3.92-6,11.64t-10,17q-6,9.29-13.59,19.07a127.91,127.91,0,0,1-16.82,17.8,88.07,88.07,0,0,1-19.75,13.1A50.32,50.32,0,0,1,636.8,271,32.81,32.81,0,0,1,620,266.85a39.08,39.08,0,0,1-11.73-10.36,43.78,43.78,0,0,1-6.94-13.69,49.3,49.3,0,0,1-2.25-14.28,60.4,60.4,0,0,1,6.65-27.09,87.46,87.46,0,0,1,17.5-24,92.36,92.36,0,0,1,24.45-17.11,63.13,63.13,0,0,1,27.67-6.55q9.19,0,13.2,4.11t4,11a31.68,31.68,0,0,1-2.64,11.64,83.17,83.17,0,0,1-7.14,13.59A124,124,0,0,1,672.4,208,118.37,118.37,0,0,1,660,220.5a89.94,89.94,0,0,1-13.4,9.68,45.29,45.29,0,0,1-13.1,5.38,35.94,35.94,0,0,0-.78,7.43,15.07,15.07,0,0,0,1.56,7.33,5.54,5.54,0,0,0,5.28,2.84,36.36,36.36,0,0,0,17-4.4,78.51,78.51,0,0,0,16-11.25A132.32,132.32,0,0,0,687,222.36q6.75-8.31,12-16.23t8.9-14.28Q711.51,185.5,713.07,182.36Zm-35.2-14.67q-4.69,0-10.27,4.6a65.74,65.74,0,0,0-11,11.93,127.48,127.48,0,0,0-10.17,16.53,157.25,157.25,0,0,0-8.12,18.19,63.19,63.19,0,0,0,14.28-10.17,120.49,120.49,0,0,0,13.1-14.08,89.92,89.92,0,0,0,9.49-14.47q3.62-7,3.62-11.34C678.85,168.09,678.52,167.7,677.87,167.7Z"/><path class="cls-24" d="M771.35,181.58a3.08,3.08,0,0,1,2.93-1.37,12,12,0,0,1,4.4.88,10,10,0,0,1,3.72,2.44,2.9,2.9,0,0,1,.88,3.13q-2,4.31-6.16,12.22t-9.88,17.21q-5.67,9.29-12.52,19.07a166.91,166.91,0,0,1-14.18,17.7,82.6,82.6,0,0,1-15.06,13Q717.76,271,710.34,271a20.07,20.07,0,0,1-15.94-7.14q-6.16-7.14-6.16-19.26a40.62,40.62,0,0,1,2-11q2-6.65,5.08-14.37t6.94-16q3.81-8.31,7.33-15.94,4.69-10,8-17.4t3.32-9.58q0-3.13,3.91-2.84a21.83,21.83,0,0,1,8.61,2.84,34.68,34.68,0,0,1,8.61,6.65q3.91,4.11,3.91,8.41a13.71,13.71,0,0,1-1,3.91q-1,2.74-2.54,6.35t-3.52,7.82q-2,4.21-3.91,8.31-3.13,6.65-6.75,14.28t-6.65,14.67q-3,7-5,13a32.26,32.26,0,0,0-2,9.29q0,1.76.59,1.76,4.3,0,9.68-4.6a92,92,0,0,0,11.15-11.64,187.77,187.77,0,0,0,11.44-15.65q5.67-8.6,10.46-16.72t8.31-14.67q3.52-6.55,5.09-9.68Zm-32.66-37.16a5.68,5.68,0,0,1-5.18-2.64,12.45,12.45,0,0,1-1.66-6.75,31.37,31.37,0,0,1,1.37-8.51,47.87,47.87,0,0,1,3.62-9.09,30.89,30.89,0,0,1,5.08-7.24q2.83-2.93,5.77-2.93a23.73,23.73,0,0,1,7.14,1.08,19.15,19.15,0,0,1,6.06,3.13,15.2,15.2,0,0,1,4.21,5.08,14.84,14.84,0,0,1-.49,14.18,23.25,23.25,0,0,1-5.77,6.75,32.05,32.05,0,0,1-20.14,6.94Z"/><path class="cls-25" d="M870.11,140.51q0,1.57-3.23,4.5a35.5,35.5,0,0,1-10,5.77,93.87,93.87,0,0,1-17.31,5,126.79,126.79,0,0,1-25,2.15q-1.76,3.91-3.62,7.82t-3.81,7.82q-5.28,11.15-10.56,22.59t-9.49,21.61q-4.21,10.17-6.84,18.58T777.61,250q0,4.69,2.93,4.69,5.47,0,11.83-4.5a81.56,81.56,0,0,0,12.81-11.54A201.35,201.35,0,0,0,818,223.14q6.35-8.51,11.54-16.52t8.9-14.57q3.71-6.55,5.28-9.68a3.08,3.08,0,0,1,2.93-1.37,12,12,0,0,1,4.4.88,10.7,10.7,0,0,1,3.72,2.35,2.73,2.73,0,0,1,.88,3q-2,3.92-6.16,11.64T839.21,216q-6.06,9.39-13.49,19.07a165.56,165.56,0,0,1-15.64,17.7,87.59,87.59,0,0,1-16.92,13.1A34.07,34.07,0,0,1,775.85,271a20.33,20.33,0,0,1-8.12-2.05,30.91,30.91,0,0,1-8.7-6,32.68,32.68,0,0,1-6.84-9.58,29.79,29.79,0,0,1-2.74-13.1q0-4.3,2.54-12.22t6.75-18.09q4.21-10.17,9.58-21.81t10.85-23.37l4.11-8.8a114.8,114.8,0,0,1-15.35-3.42,86.34,86.34,0,0,1-11.34-4.21,32.77,32.77,0,0,1-7-4.2q-2.44-2.05-2.44-3.23a7.17,7.17,0,0,1,.88-4,3.81,3.81,0,0,1,2.64-1.56,12.39,12.39,0,0,1,4.5.29q2.74.59,6.65,1.37,4.5,1,11.54,2.25t16.62,2.25q7-15.25,11.64-27.09t4.6-16.72q0-3.13,3.91-2.74a24.16,24.16,0,0,1,8.7,2.93,34,34,0,0,1,8.7,6.65q3.91,4.11,3.91,8.21,0,4.5-2.64,12.22t-7.14,17.7a152.68,152.68,0,0,0,20.63-2q9.09-1.56,14.77-3.13l-.2.2a32.12,32.12,0,0,1,9.78-1.27Q870.11,136.8,870.11,140.51Z"/></g></g></svg>